# xmcd
#
# Track frame offsets:
#	150
#	14830
#	33247
#	48495
#	70995
#	84180
#	98325
#	119410
#	134415
#	155497
#	176837
#	189562
#	205030
#	222077
#	238125
#	254710
#
# Disc length: 3657 seconds
#
# Revision: 1
# Processed by: cddbd v1.5.1PL0 Copyright (c) Steve Scherf et al.
# Submitted via: CDex 1.50Beta5
#
DISCID=e40e4710
DTITLE=松山千春 - スーパーベスト
DYEAR=1900
DGENRE=
TTITLE0=季節の中で
TTITLE1=帰郷
TTITLE2=青春
TTITLE3=窓
TTITLE4=空を飛ぶ鳥のように野を駆ける風のように
TTITLE5=旅立ち
TTITLE6=雪化粧
TTITLE7=卒業
TTITLE8=恋
TTITLE9=こんな夜は
TTITLE10=君のために作った歌
TTITLE11=おいで僕のそばに
TTITLE12=時のいたずら
TTITLE13=銀の雨
TTITLE14=夜明け
TTITLE15=かざぐるま
EXTD=
EXTT0=
EXTT1=
EXTT2=
EXTT3=
EXTT4=
EXTT5=
EXTT6=
EXTT7=
EXTT8=
EXTT9=
EXTT10=
EXTT11=
EXTT12=
EXTT13=
EXTT14=
EXTT15=
PLAYORDER=
